HIERARCHY
ROOT root
{
	OFFSET 0.000000 0.000000 0.000000
	CHANNELS 6 Xposition Yposition Zposition Zrotation Yrotation Xrotation
	JOINT lhip
	{
		OFFSET 0.058581 -0.082280 -0.017664
		CHANNELS 3 Zrotation Yrotation Xrotation
		JOINT lknee
		{
			OFFSET 0.043451 -0.386469 0.008037
			CHANNELS 3 Zrotation Yrotation Xrotation
			JOINT lankle
			{
				OFFSET -0.014790 -0.426874 -0.037428
				CHANNELS 3 Zrotation Yrotation Xrotation
				JOINT ltoe
				{
					OFFSET 0.041054 -0.060286 0.122042
					CHANNELS 3 Zrotation Yrotation Xrotation
					End Site
					{
						OFFSET 0.000000 0.000000 0.000000
					}
				}
			}
		}
	}
	JOINT rhip
	{
		OFFSET -0.060310 -0.090513 -0.013543
		CHANNELS 3 Zrotation Yrotation Xrotation
		JOINT rknee
		{
			OFFSET -0.043257 -0.383688 -0.004843
			CHANNELS 3 Zrotation Yrotation Xrotation
			JOINT rankle
			{
				OFFSET 0.019056 -0.420046 -0.034562
				CHANNELS 3 Zrotation Yrotation Xrotation
				JOINT rtoe
				{
					OFFSET -0.034840 -0.062106 0.130323
					CHANNELS 3 Zrotation Yrotation Xrotation
					End Site
					{
						OFFSET 0.000000 0.000000 0.000000
					}
				}
			}
		}
	}
	JOINT lowerback
	{
		OFFSET 0.004439 0.124404 -0.038385
		CHANNELS 3 Zrotation Yrotation Xrotation
		JOINT upperback
		{
			OFFSET 0.004488 0.137956 0.026820
			CHANNELS 3 Zrotation Yrotation Xrotation
			JOINT chest
			{
				OFFSET -0.002265 0.056032 0.002855
				CHANNELS 3 Zrotation Yrotation Xrotation
				JOINT lowerneck
				{
					OFFSET -0.013390 0.211636 -0.033468
					CHANNELS 3 Zrotation Yrotation Xrotation
					JOINT upperneck
					{
						OFFSET 0.010113 0.088937 0.050410
						CHANNELS 3 Zrotation Yrotation Xrotation
						End Site
						{
							OFFSET 0.000000 0.000000 0.000000
						}
					}
				}
				JOINT lclavicle
				{
					OFFSET 0.071702 0.114000 -0.018898
					CHANNELS 3 Zrotation Yrotation Xrotation
					JOINT lshoulder
					{
						OFFSET 0.122921 0.045205 -0.019046
						CHANNELS 3 Zrotation Yrotation Xrotation
						JOINT lelbow
						{
							OFFSET 0.255332 -0.015649 -0.022946
							CHANNELS 3 Zrotation Yrotation Xrotation
							JOINT lwrist
							{
								OFFSET 0.265709 0.012698 -0.007375
								CHANNELS 3 Zrotation Yrotation Xrotation
								End Site
								{
									OFFSET 0.000000 0.000000 0.000000
								}
							}
						}
					}
				}
				JOINT rclavicle
				{
					OFFSET -0.082954 0.112472 -0.023707
					CHANNELS 3 Zrotation Yrotation Xrotation
					JOINT rshoulder
					{
						OFFSET -0.113228 0.046853 -0.008472
						CHANNELS 3 Zrotation Yrotation Xrotation
						JOINT relbow
						{
							OFFSET -0.260127 -0.014369 -0.031269
							CHANNELS 3 Zrotation Yrotation Xrotation
							JOINT rwrist
							{
								OFFSET -0.269108 0.006794 -0.006027
								CHANNELS 3 Zrotation Yrotation Xrotation
								End Site
								{
									OFFSET 0.000000 0.000000 0.000000
								}
							}
						}
					}
				}
			}
		}
	}
}
MOTION
Frames: 18
Frame Time: 0.033333
1.169635 0.174804 0.991811 -91.957989 2.202327 85.236310 -0.702518 0.246464 8.153588 -2.727780 -14.712439 0.696467 5.785806 9.238843 -17.663212 0.000000 -0.000000 0.000000 3.298362 -1.560224 3.274932 3.112396 2.749079 7.947544 3.902527 -1.653784 -11.316457 0.000000 -0.000000 0.000000 -2.955769 1.570024 7.591194 1.925766 -3.826926 5.751950 0.785919 -1.198988 4.719221 5.457205 -1.252706 14.820393 4.450962 -5.529351 14.735374 -22.343513 3.841748 4.799915 -65.462134 -6.868575 9.806989 14.539401 -27.864212 3.202937 3.034730 -2.173603 -12.876770 20.380988 -2.931234 4.053066 68.934202 0.700437 11.223394 -18.295801 29.632455 0.028690 6.745912 0.658119 -11.534353 
1.169762 0.175523 0.991071 -92.078372 2.384220 85.586704 -0.487275 0.010736 7.603327 -2.785830 -14.355133 1.016430 5.959444 9.215772 -17.579698 0.000000 -0.000000 0.000000 3.621806 -1.204832 2.841047 3.091094 2.780071 8.009227 3.699798 -1.988446 -11.253621 0.000000 -0.000000 0.000000 -2.948932 1.465043 6.751533 2.101934 -3.855154 6.260339 0.676977 -1.076432 4.821154 5.731762 -1.914661 14.442314 3.828556 -6.391312 14.808944 -22.161655 3.938188 4.836500 -65.768727 -7.230445 10.331824 14.506551 -27.977750 3.327108 4.074916 -2.156272 -13.372889 20.412088 -2.896666 3.945337 68.949136 1.058641 11.572273 -18.408507 29.146032 -0.239776 4.639633 1.134099 -11.572708 
1.169683 0.175596 0.990476 -91.999679 2.652279 85.910933 -0.159152 -0.245259 7.079355 -2.889580 -14.152220 1.283454 5.901065 9.124279 -17.638037 0.000000 -0.000000 0.000000 3.984319 -1.164522 2.442240 3.099690 2.743539 8.053235 3.482438 -2.233589 -11.313236 0.000000 -0.000000 0.000000 -2.812089 1.662118 5.750301 2.512537 -3.863827 7.119454 0.672434 -1.428636 4.831031 5.549664 -2.585883 13.999209 2.995611 -6.900293 14.606185 -22.390588 3.737477 4.787705 -66.039638 -7.744957 10.656942 14.516359 -27.786062 3.255894 4.617361 -2.220726 -13.673304 20.284886 -3.067638 3.695752 68.837800 1.542540 11.619077 -18.294161 28.690872 -0.308454 3.245846 1.223657 -10.888906 
1.169006 0.176010 0.990115 -92.146547 2.957092 86.582093 0.226438 -0.539719 6.350326 -2.997554 -13.782496 1.394579 6.142979 9.158290 -17.658959 0.000000 -0.000000 0.000000 4.446022 -0.778000 1.722903 3.068182 2.755617 8.160900 3.211524 -2.552523 -11.382992 0.000000 -0.000000 0.000000 -2.524824 1.462682 4.765785 2.669729 -3.868888 7.094503 0.641830 -1.486018 4.760489 5.060631 -3.496011 14.550314 2.482636 -7.101414 14.372656 -22.722734 3.826517 5.146312 -66.167495 -7.643659 10.785917 14.745026 -28.165603 3.351286 4.194991 -1.676867 -13.053796 20.343644 -3.100577 4.131111 68.538296 1.198632 11.615360 -18.550529 29.387412 -0.314785 3.560637 1.297664 -11.297347 
1.168820 0.176176 0.990137 -92.234527 3.016972 86.615003 0.295517 -0.573569 6.299585 -3.037683 -13.743830 1.441224 6.060864 9.208324 -17.602910 0.000000 -0.000000 0.000000 4.521648 -0.767986 1.667982 3.076065 2.812696 8.242709 3.181355 -2.542575 -11.407519 0.000000 -0.000000 0.000000 -2.467221 1.394087 4.765192 2.756393 -3.889036 7.018885 0.647109 -1.536092 4.757142 4.918657 -4.147016 14.401320 2.183793 -7.603860 14.311524 -22.756123 3.933023 5.106264 -66.350795 -7.598075 10.960828 14.821439 -28.175319 3.529457 4.495267 -1.683489 -13.348773 20.237595 -3.049969 4.055586 68.597494 1.139795 11.661875 -18.621497 29.237958 -0.452529 3.205635 1.335328 -11.466899 
1.168697 0.176584 0.989668 -92.291572 3.079672 86.694045 0.380209 -0.698729 6.108375 -3.080691 -13.660987 1.681232 6.079889 9.205200 -17.701355 0.000000 -0.000000 0.000000 4.678253 -0.506840 1.647682 2.999834 2.906876 8.137735 3.075601 -2.741845 -11.438031 0.000000 -0.000000 0.000000 -2.396839 1.328524 4.641964 2.812913 -3.888985 7.057529 0.586640 -1.621507 4.709452 4.898250 -4.269672 14.421833 2.225055 -7.752626 14.334117 -22.758384 3.955795 5.115266 -66.437835 -7.695070 11.083034 14.730776 -28.143450 3.670882 4.265457 -1.794456 -13.590319 20.214579 -3.134067 4.023035 68.590698 1.201801 11.722675 -18.549782 29.074514 -0.465218 3.254883 1.323372 -11.725558 
1.168623 0.176808 0.989349 -92.409864 3.023996 86.899659 0.335031 -0.775158 5.821240 -3.136163 -13.466127 1.754238 6.193920 9.378769 -17.772606 0.000000 -0.000000 0.000000 4.585670 -0.577389 1.333775 3.065421 2.907175 8.290565 3.144673 -2.576393 -11.462880 0.000000 -0.000000 0.000000 -2.414075 1.304505 4.606506 2.827217 -3.909466 6.714020 0.567869 -1.685489 4.675867 4.900400 -4.680657 14.472690 2.256774 -8.033354 14.371743 -22.840252 4.042749 5.115334 -66.378915 -7.594941 11.169547 14.596698 -28.198107 3.680595 4.182249 -1.374632 -13.218013 20.073227 -3.290110 3.938380 68.723629 0.865591 11.871587 -18.350112 29.076742 -0.314045 4.127928 0.465167 -12.514590 
1.168354 0.176948 0.989320 -92.490330 2.955657 86.895530 0.243300 -0.721266 5.809897 -3.094296 -13.445589 1.825285 6.195644 9.296591 -17.666881 0.000000 -0.000000 0.000000 4.540049 -0.538277 1.375954 3.029655 2.890150 8.282432 3.177414 -2.534437 -11.468543 0.000000 -0.000000 0.000000 -2.505258 1.298962 4.697832 2.867463 -3.944037 6.550772 0.621088 -1.751741 4.625280 4.863166 -5.193188 14.612334 2.109505 -8.493637 14.648638 -22.874561 4.139894 5.168452 -66.442887 -7.774876 11.089767 14.575194 -28.037512 3.753147 3.543922 -1.503899 -13.005188 20.162371 -3.350651 4.035016 68.549276 0.999828 11.741402 -18.222367 28.886248 -0.165587 4.483957 0.654155 -12.407555 
1.167511 0.177072 0.989300 -92.465088 3.001526 86.811375 0.285770 -0.648834 6.026581 -3.037465 -13.578462 1.714740 6.141315 9.328694 -17.729939 0.000000 -0.000000 0.000000 4.589293 -0.469738 1.667061 3.034578 2.805204 8.080914 3.209116 -2.586941 -11.445320 0.000000 -0.000000 0.000000 -2.425362 1.195307 4.760559 2.841272 -4.017519 6.495493 0.605890 -1.780921 4.739964 4.788848 -5.196027 14.473414 2.096147 -8.598944 14.695936 -22.791927 4.160824 5.244154 -66.506920 -7.912200 11.049407 14.534441 -27.890346 3.766072 3.463745 -1.699732 -13.306744 20.297090 -3.389869 3.947984 68.452273 1.274878 11.616764 -18.040147 28.401998 -0.037597 3.984072 1.180446 -11.728437 
1.167129 0.177176 0.989200 -92.586578 2.926443 86.705823 0.229309 -0.612534 6.205063 -3.070257 -13.591422 1.657266 6.175495 9.332330 -17.712530 0.000000 -0.000000 0.000000 4.477862 -0.407117 1.834661 3.058928 2.776544 8.027316 3.247474 -2.405791 -11.460322 0.000000 -0.000000 0.000000 -2.551817 1.229834 4.779546 2.894578 -4.113309 6.756520 0.637674 -1.802320 4.662399 4.767595 -5.563126 14.557651 2.173146 -9.048679 14.704005 -22.776659 3.931852 5.373852 -66.516056 -8.012676 11.034141 14.756578 -27.753874 3.467734 3.307031 -1.917479 -13.339218 20.271988 -3.175527 3.980689 68.545885 1.244122 11.562789 -18.201924 28.366627 -0.047022 4.830680 0.975825 -12.049568 
1.167089 0.177193 0.989236 -92.592933 2.949046 86.826358 0.219391 -0.627748 6.056145 -2.999673 -13.570002 1.695358 6.070385 9.367222 -17.749047 0.000000 -0.000000 0.000000 4.525043 -0.430366 1.737467 3.050175 2.884561 7.975929 3.234322 -2.500734 -11.476593 0.000000 -0.000000 0.000000 -2.549587 1.187914 4.720186 2.913114 -4.164054 6.677790 0.641689 -1.799335 4.758927 4.885285 -5.807298 14.615394 2.038010 -9.246208 14.803105 -22.744444 4.013627 5.308197 -66.413011 -8.054897 11.120959 14.656332 -27.822337 3.686473 4.145038 -1.897736 -13.156606 20.359763 -3.217207 3.911051 68.432509 1.305596 11.583580 -17.996202 28.274294 -0.129762 3.555658 1.269112 -11.772588 
1.167103 0.177148 0.989324 -92.595455 2.976626 86.888339 0.269505 -0.616968 5.943145 -3.016325 -13.551944 1.691850 6.165007 9.387285 -17.668023 0.000000 -0.000000 0.000000 4.472707 -0.583956 1.667951 3.170742 2.866032 7.981142 3.234865 -2.351319 -11.390878 0.000000 -0.000000 0.000000 -2.524315 1.145962 4.603954 2.939122 -4.270222 6.881961 0.601806 -1.789971 4.800637 4.936201 -5.966643 14.389022 2.078576 -9.513609 14.803803 -22.719622 3.985699 5.264029 -66.378033 -8.177542 11.111577 14.753597 -27.759071 3.445503 4.680090 -1.941632 -12.847589 20.505796 -3.128630 3.824245 68.352113 1.491678 11.527215 -17.934128 28.044543 -0.303052 2.830172 1.562047 -11.379356 
1.166873 0.177272 0.989173 -92.660128 2.934909 86.975093 0.245180 -0.569129 5.841891 -3.039643 -13.483633 1.704692 6.194873 9.303946 -17.635395 0.000000 -0.000000 0.000000 4.433948 -0.734102 1.580950 3.162215 2.965196 7.955059 3.193035 -2.219536 -11.389540 0.000000 -0.000000 0.000000 -2.617569 1.208283 4.277611 2.993170 -4.350668 7.289003 0.620717 -1.776862 4.822996 5.084283 -6.198980 14.371682 2.196095 -9.828221 14.572736 -22.651635 4.015890 5.129908 -66.327273 -8.270968 11.083908 14.796860 -27.866433 3.374595 3.797192 -1.370552 -12.995530 20.420317 -3.162478 3.774316 68.520561 1.520785 11.594426 -18.067837 28.097233 -0.234064 3.817258 1.128443 -11.629695 
1.166362 0.177601 0.989206 -92.706005 2.980596 86.915905 0.355798 -0.461603 5.940511 -3.085725 -13.492233 1.716199 6.113073 9.251169 -17.728587 0.000000 -0.000000 0.000000 4.512575 -0.747409 1.756928 3.152063 2.969114 7.834904 3.130299 -2.183201 -11.307586 0.000000 -0.000000 0.000000 -2.656139 1.277750 4.235925 3.028817 -4.377033 7.461640 0.679900 -1.771695 4.745428 4.923200 -5.951873 14.653748 2.253584 -9.550052 14.623529 -22.602150 3.817358 5.272534 -66.283421 -8.278852 10.967812 14.934629 -27.776703 3.181412 3.638748 -1.256380 -12.999816 20.332029 -3.102108 3.889705 68.607861 1.433862 11.492659 -18.126268 28.180174 -0.155162 4.705423 0.988919 -12.078068 
1.165806 0.178094 0.989279 -92.840116 2.983687 86.813889 0.396325 -0.484855 6.227617 -3.053787 -13.506455 1.458975 6.175738 9.422509 -17.681258 0.000000 -0.000000 0.000000 4.582926 -0.549321 2.019179 3.142003 3.100661 7.637088 3.160530 -2.391808 -11.234624 0.000000 -0.000000 0.000000 -2.755422 1.260188 4.316749 3.069262 -4.348925 7.498566 0.715845 -1.686501 4.915522 5.295368 -6.116439 14.453693 2.312164 -9.864801 14.520353 -22.548038 3.981064 5.025527 -66.124223 -8.386638 11.033826 14.613034 -27.653149 3.403244 3.952980 -1.466813 -13.258639 20.491944 -3.169952 3.790710 68.437437 1.638727 11.558727 -18.081391 28.064253 -0.344728 3.116615 1.465553 -11.356653 
1.165537 0.178235 0.989317 -92.869709 2.991579 86.851308 0.422401 -0.440592 6.223489 -3.064344 -13.522320 1.442812 6.118697 9.351616 -17.630976 0.000000 -0.000000 0.000000 4.631734 -0.534204 1.972312 3.088248 3.110351 7.696777 3.145318 -2.391593 -11.256850 0.000000 -0.000000 0.000000 -2.792275 1.230389 4.430306 3.091229 -4.323024 7.430915 0.751068 -1.655862 4.899596 5.387432 -6.118461 14.177349 2.317822 -9.912505 14.478432 -22.515729 4.121296 4.979683 -66.054406 -8.323740 10.987967 14.701544 -27.840432 3.434172 3.530742 -1.687290 -13.382405 20.464615 -3.250486 3.660278 68.385951 1.497284 11.590910 -18.055525 28.152782 -0.107418 3.655945 1.693701 -11.282447 
1.165388 0.178411 0.989287 -92.854657 3.000372 86.898566 0.437662 -0.421894 6.122716 -3.064823 -13.575471 1.555386 6.072639 9.388095 -17.747893 0.000000 -0.000000 0.000000 4.591465 -0.476449 1.993430 3.208574 3.022167 7.594580 3.155786 -2.437723 -11.256440 0.000000 -0.000000 0.000000 -2.751025 1.247770 4.494344 3.080338 -4.284642 7.328570 0.708241 -1.671888 4.910890 5.506446 -6.259529 14.179634 2.478524 -10.092182 14.386397 -22.420696 4.088756 4.967935 -65.999798 -8.252411 11.021767 14.673788 -27.882205 3.477280 3.741591 -1.539665 -13.272803 20.338052 -3.193317 3.634057 68.552644 1.261713 11.674053 -17.925269 28.149259 -0.183597 3.547551 1.336336 -11.880817 
1.165168 0.178468 0.989295 -92.769925 3.001627 86.858863 0.441651 -0.421180 6.195109 -3.060701 -13.667176 1.512770 6.066220 9.391188 -17.738513 0.000000 -0.000000 0.000000 4.601309 -0.546912 2.104744 3.179541 2.980901 7.507042 3.161596 -2.461239 -11.185875 0.000000 -0.000000 0.000000 -2.703967 1.236154 4.580150 3.028865 -4.301531 7.346052 0.717565 -1.683597 4.942057 5.394482 -5.789638 14.396898 2.501834 -9.520576 14.393707 -22.355435 3.972534 4.949987 -66.011128 -8.202038 11.021597 14.704205 -27.820538 3.441928 4.395149 -1.291539 -13.186841 20.284479 -3.219176 3.650840 68.525587 1.206342 11.666117 -17.868836 28.316657 -0.107747 3.406319 1.232541 -11.925321 
